<?xml version="1.0" encoding="UTF-8" standalone="no"?>
<!DOCTYPE svg PUBLIC "-//W3C//DTD SVG 1.1//EN"
 "http://www.w3.org/Graphics/SVG/1.1/DTD/svg11.dtd">
<!-- Generated by graphviz version 2.38.0 (20140413.2041)
 -->
<!-- Title: inheritance9d2c7ba78b Pages: 1 -->
<svg width="471pt" height="138pt"
 viewBox="0.00 0.00 471.00 138.00" xmlns="http://www.w3.org/2000/svg" xmlns:xlink="http://www.w3.org/1999/xlink">
<g id="graph0" class="graph" transform="scale(1 1) rotate(0) translate(4 134)">
<title>inheritance9d2c7ba78b</title>
<polygon fill="white" stroke="none" points="-4,4 -4,-134 467,-134 467,4 -4,4"/>
<!-- NDArithmeticMixin -->
<g id="node1" class="node"><title>NDArithmeticMixin</title>
<g id="a_node1"><a xlink:title="Mixin class to add arithmetic to an NDData object.">
<polygon fill="none" stroke="black" stroke-width="0.5" points="210,-130 111,-130 111,-111 210,-111 210,-130"/>
<text text-anchor="middle" x="160.5" y="-118" font-family="Vera Sans, DejaVu Sans, Liberation Sans, Arial, Helvetica, sans" font-size="10.00">NDArithmeticMixin</text>
</a>
</g>
</g>
<!-- NDDataRef -->
<g id="node4" class="node"><title>NDDataRef</title>
<g id="a_node4"><a xlink:title="Implements `NDData` with all Mixins.">
<polygon fill="none" stroke="black" stroke-width="0.5" points="334.5,-74 266.5,-74 266.5,-55 334.5,-55 334.5,-74"/>
<text text-anchor="middle" x="300.5" y="-62" font-family="Vera Sans, DejaVu Sans, Liberation Sans, Arial, Helvetica, sans" font-size="10.00">NDDataRef</text>
</a>
</g>
</g>
<!-- NDArithmeticMixin&#45;&gt;NDDataRef -->
<g id="edge2" class="edge"><title>NDArithmeticMixin&#45;&gt;NDDataRef</title>
<path fill="none" stroke="black" stroke-width="0.5" d="M188.014,-110.911C195.176,-108.253 202.906,-105.321 210,-102.5 231.221,-94.0625 255.006,-83.9309 272.72,-76.2518"/>
<polygon fill="black" stroke="black" stroke-width="0.5" points="273.66,-77.7518 277.549,-74.1545 272.265,-74.5416 273.66,-77.7518"/>
</g>
<!-- NDData -->
<g id="node2" class="node"><title>NDData</title>
<g id="a_node2"><a xlink:title="A container for `numpy.ndarray`&#45;based datasets, using the">
<polygon fill="none" stroke="black" stroke-width="0.5" points="187.5,-93 133.5,-93 133.5,-74 187.5,-74 187.5,-93"/>
<text text-anchor="middle" x="160.5" y="-81" font-family="Vera Sans, DejaVu Sans, Liberation Sans, Arial, Helvetica, sans" font-size="10.00">NDData</text>
</a>
</g>
</g>
<!-- NDData&#45;&gt;NDDataRef -->
<g id="edge5" class="edge"><title>NDData&#45;&gt;NDDataRef</title>
<path fill="none" stroke="black" stroke-width="0.5" d="M187.782,-79.8815C208.575,-77.0187 237.901,-72.981 261.29,-69.7609"/>
<polygon fill="black" stroke="black" stroke-width="0.5" points="261.773,-71.4608 266.488,-69.0451 261.296,-67.9935 261.773,-71.4608"/>
</g>
<!-- NDDataBase -->
<g id="node3" class="node"><title>NDDataBase</title>
<g id="a_node3"><a xlink:title="Base metaclass that defines the interface for N&#45;dimensional datasets">
<polygon fill="none" stroke="black" stroke-width="0.5" points="75,-93 0,-93 0,-74 75,-74 75,-93"/>
<text text-anchor="middle" x="37.5" y="-81" font-family="Vera Sans, DejaVu Sans, Liberation Sans, Arial, Helvetica, sans" font-size="10.00">NDDataBase</text>
</a>
</g>
</g>
<!-- NDDataBase&#45;&gt;NDData -->
<g id="edge1" class="edge"><title>NDDataBase&#45;&gt;NDData</title>
<path fill="none" stroke="black" stroke-width="0.5" d="M75.1324,-83.5C92.0055,-83.5 111.828,-83.5 128.018,-83.5"/>
<polygon fill="black" stroke="black" stroke-width="0.5" points="128.36,-85.2501 133.36,-83.5 128.36,-81.7501 128.36,-85.2501"/>
</g>
<!-- Spectrum1D -->
<g id="node8" class="node"><title>Spectrum1D</title>
<g id="a_node8"><a xlink:href="../api/specutils.spectra.spectrum1d.Spectrum1D.html#specutils.spectra.spectrum1d.Spectrum1D" xlink:title="Spectrum container for 1D spectral data." target="_top">
<polygon fill="none" stroke="black" stroke-width="0.5" points="463,-55 391,-55 391,-36 463,-36 463,-55"/>
<text text-anchor="middle" x="427" y="-43" font-family="Vera Sans, DejaVu Sans, Liberation Sans, Arial, Helvetica, sans" font-size="10.00">Spectrum1D</text>
</a>
</g>
</g>
<!-- NDDataRef&#45;&gt;Spectrum1D -->
<g id="edge7" class="edge"><title>NDDataRef&#45;&gt;Spectrum1D</title>
<path fill="none" stroke="black" stroke-width="0.5" d="M334.537,-59.4582C350.205,-57.0671 369.067,-54.1886 385.581,-51.6683"/>
<polygon fill="black" stroke="black" stroke-width="0.5" points="385.946,-53.3829 390.625,-50.8986 385.418,-49.923 385.946,-53.3829"/>
</g>
<!-- NDIOMixin -->
<g id="node5" class="node"><title>NDIOMixin</title>
<g id="a_node5"><a xlink:title="Mixin class to connect NDData to the astropy input/output registry.">
<polygon fill="none" stroke="black" stroke-width="0.5" points="193,-56 128,-56 128,-37 193,-37 193,-56"/>
<text text-anchor="middle" x="160.5" y="-44" font-family="Vera Sans, DejaVu Sans, Liberation Sans, Arial, Helvetica, sans" font-size="10.00">NDIOMixin</text>
</a>
</g>
</g>
<!-- NDIOMixin&#45;&gt;NDDataRef -->
<g id="edge3" class="edge"><title>NDIOMixin&#45;&gt;NDDataRef</title>
<path fill="none" stroke="black" stroke-width="0.5" d="M193.16,-50.6296C213.345,-53.2624 239.632,-56.6911 261.019,-59.4807"/>
<polygon fill="black" stroke="black" stroke-width="0.5" points="260.878,-61.2271 266.062,-60.1386 261.331,-57.7565 260.878,-61.2271"/>
</g>
<!-- NDSlicingMixin -->
<g id="node6" class="node"><title>NDSlicingMixin</title>
<g id="a_node6"><a xlink:title="Mixin to provide slicing on objects using the `NDData`">
<polygon fill="none" stroke="black" stroke-width="0.5" points="202.5,-19 118.5,-19 118.5,-0 202.5,-0 202.5,-19"/>
<text text-anchor="middle" x="160.5" y="-7" font-family="Vera Sans, DejaVu Sans, Liberation Sans, Arial, Helvetica, sans" font-size="10.00">NDSlicingMixin</text>
</a>
</g>
</g>
<!-- NDSlicingMixin&#45;&gt;NDDataRef -->
<g id="edge4" class="edge"><title>NDSlicingMixin&#45;&gt;NDDataRef</title>
<path fill="none" stroke="black" stroke-width="0.5" d="M188.897,-19.0787C195.84,-21.667 203.244,-24.5677 210,-27.5 226.409,-34.6225 229.541,-38.4936 246,-45.5 252.287,-48.1764 259.093,-50.7967 265.675,-53.1949"/>
<polygon fill="black" stroke="black" stroke-width="0.5" points="265.355,-54.9395 270.653,-54.9828 266.539,-51.6455 265.355,-54.9395"/>
</g>
<!-- OneDSpectrumMixin -->
<g id="node7" class="node"><title>OneDSpectrumMixin</title>
<g id="a_node7"><a xlink:href="../api/specutils.spectra.spectrum_mixin.OneDSpectrumMixin.html#specutils.spectra.spectrum_mixin.OneDSpectrumMixin" xlink:title="OneDSpectrumMixin" target="_top">
<polygon fill="none" stroke="black" stroke-width="0.5" points="355,-37 246,-37 246,-18 355,-18 355,-37"/>
<text text-anchor="middle" x="300.5" y="-25" font-family="Vera Sans, DejaVu Sans, Liberation Sans, Arial, Helvetica, sans" font-size="10.00">OneDSpectrumMixin</text>
</a>
</g>
</g>
<!-- OneDSpectrumMixin&#45;&gt;Spectrum1D -->
<g id="edge6" class="edge"><title>OneDSpectrumMixin&#45;&gt;Spectrum1D</title>
<path fill="none" stroke="black" stroke-width="0.5" d="M355.022,-35.2381C365.348,-36.7311 376.002,-38.2714 385.815,-39.6901"/>
<polygon fill="black" stroke="black" stroke-width="0.5" points="385.665,-41.4366 390.864,-40.4201 386.166,-37.9726 385.665,-41.4366"/>
</g>
</g>
</svg>
